<?xml version="1.0" encoding="UTF-8" standalone="no"?>
<!-- Created with Inkscape (http://www.inkscape.org/) -->

<svg
   xmlns:dc="http://purl.org/dc/elements/1.1/"
   xmlns:cc="http://creativecommons.org/ns#"
   xmlns:rdf="http://www.w3.org/1999/02/22-rdf-syntax-ns#"
   xmlns:svg="http://www.w3.org/2000/svg"
   xmlns="http://www.w3.org/2000/svg"
   xmlns:sodipodi="http://sodipodi.sourceforge.net/DTD/sodipodi-0.dtd"
   xmlns:inkscape="http://www.inkscape.org/namespaces/inkscape"
   width="210mm"
   height="297mm"
   viewBox="0 0 210 297"
   version="1.1"
   id="svg8"
   inkscape:version="0.92.4 (5da689c313, 2019-01-14)"
   sodipodi:docname="logo.svg">
  <defs
     id="defs2" />
  <sodipodi:namedview
     id="base"
     pagecolor="#ffffff"
     bordercolor="#666666"
     borderopacity="1.0"
     inkscape:pageopacity="0.0"
     inkscape:pageshadow="2"
     inkscape:zoom="0.49497475"
     inkscape:cx="279.53662"
     inkscape:cy="620.76979"
     inkscape:document-units="mm"
     inkscape:current-layer="g5288"
     showgrid="false"
     inkscape:window-width="1920"
     inkscape:window-height="1027"
     inkscape:window-x="-8"
     inkscape:window-y="-8"
     inkscape:window-maximized="1" />
  <metadata
     id="metadata5">
    <rdf:RDF>
      <cc:Work
         rdf:about="">
        <dc:format>image/svg+xml</dc:format>
        <dc:type
           rdf:resource="http://purl.org/dc/dcmitype/StillImage" />
        <dc:title></dc:title>
      </cc:Work>
    </rdf:RDF>
  </metadata>
  <g
     inkscape:label="Layer 1"
     inkscape:groupmode="layer"
     id="layer1">
    <g
       id="g5288">
      <path
         sodipodi:nodetypes="ccsccsc"
         inkscape:connector-curvature="0"
         id="rect4625-5"
         d="m 36.856327,76.23536 h 42.232052 c 0,0 -8.819894,57.19568 -8.819894,85.79352 0,18.51201 8.819894,61.41597 8.819894,61.41597 l -42.232052,-5.87993 c 0,0 -8.819895,-36.66767 -8.819895,-55.0015 0,-28.77602 8.819895,-86.32806 8.819895,-86.32806 z"
         style="fill:#2c89a0;fill-opacity:1;stroke:none;stroke-width:0.97247839;stroke-miterlimit:4;stroke-dasharray:none;stroke-opacity:1" />
      <path
         id="rect4625"
         transform="scale(0.26458333)"
         d="M 139.29883 288.13281 L 131.43164 349.67969 L 268.15234 549.55859 C 268.98756 537.51903 269.99058 525.0857 271.12695 512.43555 L 139.29883 288.13281 z "
         style="fill:#216778;fill-opacity:1;stroke:none;stroke-width:3.67550898;stroke-miterlimit:4;stroke-dasharray:none;stroke-opacity:1" />
      <path
         sodipodi:nodetypes="cccccsc"
         inkscape:connector-curvature="0"
         id="rect4625-09-7"
         d="m 116.94666,72.358086 42.76659,4.276312 c 0,0 10.15624,53.821242 10.15624,77.376172 0,23.55492 -10.15624,63.95338 -10.15624,63.95338 H 117.4812 c 0,0 9.88643,-42.72866 10.15624,-64.48792 0.32034,-25.83465 -10.69078,-81.117944 -10.69078,-81.117944 z"
         style="fill:#2c89a0;fill-opacity:1;stroke:none;stroke-width:0.97247839;stroke-miterlimit:4;stroke-dasharray:none;stroke-opacity:1" />
      <path
         id="rect4625-09"
         transform="scale(0.26458333)"
         d="M 482.74023 574.94336 L 482.42578 576.91992 C 482.42202 577.97469 482.42102 579.03458 482.4082 580.06836 C 481.38845 662.30808 444.02344 823.80078 444.02344 823.80078 L 603.64062 823.80078 C 603.64062 823.80078 605.39846 816.76051 608.08008 805.26562 L 610.92773 791.48242 L 482.74023 574.94336 z "
         style="fill:#216778;fill-opacity:1;stroke:none;stroke-width:3.67550898;stroke-miterlimit:4;stroke-dasharray:none;stroke-opacity:1" />
      <rect
         transform="matrix(1,0,0.49445941,0.86920072,0,0)"
         ry="0"
         y="87.707428"
         x="-6.511436"
         height="163.05652"
         width="42.232052"
         id="rect4625-0"
         style="fill:#87cdde;fill-opacity:1;stroke:#000000;stroke-width:1.04455793;stroke-miterlimit:4;stroke-dasharray:none;stroke-opacity:0" />
    </g>
  </g>
</svg>
